<svg width="300" height="300" viewBox="0 0 129 129" fill="none" xmlns="http://www.w3.org/2000/svg">
<path d="M105.571 87.2857H114.714C117.139 87.2857 119.465 86.3225 121.179 84.6078C122.894 82.8932 123.857 80.5677 123.857 78.1429V64.4286C123.857 62.0037 122.894 59.6782 121.179 57.9636C119.465 56.249 117.139 55.2857 114.714 55.2857H105.571C104.359 55.2857 103.196 55.7673 102.339 56.6247C101.482 57.482 101 58.6447 101 59.8571V82.7143C101 83.9267 101.482 85.0895 102.339 85.9468C103.196 86.8041 104.359 87.2857 105.571 87.2857ZM105.571 87.2857V94.1429C105.571 98.9925 103.645 103.644 100.216 107.073C96.7864 110.502 92.1354 112.429 87.2857 112.429M14.1429 55.2857H23.2857C24.4981 55.2857 25.6609 55.7673 26.5182 56.6247C27.3755 57.482 27.8571 58.6447 27.8571 59.8571V82.7143C27.8571 83.9267 27.3755 85.0895 26.5182 85.9468C25.6609 86.8041 24.4981 87.2857 23.2857 87.2857H14.1429C11.718 87.2857 9.3925 86.3225 7.67788 84.6078C5.96326 82.8932 5 80.5677 5 78.1429V64.4286C5 62.0037 5.96326 59.6782 7.67788 57.9636C9.3925 56.249 11.718 55.2857 14.1429 55.2857Z" stroke="#F6AB4A" stroke-width="9.14286" stroke-linecap="round" stroke-linejoin="round"/>
<path d="M23.2856 55.2857V46.1429C23.2856 35.2311 27.6203 24.7662 35.3361 17.0505C43.0519 9.33468 53.5167 5 64.4285 5C75.3403 5 85.8051 9.33468 93.5209 17.0505C101.237 24.7662 105.571 35.2311 105.571 46.1429V55.2857M50.7142 37V50.7143M78.1428 37V50.7143M50.7142 69C50.7142 81.16 78.1428 81.16 78.1428 69M75.8571 101C78.8881 101 81.795 102.204 83.9383 104.347C86.0816 106.491 87.2856 109.398 87.2856 112.429C87.2856 115.46 86.0816 118.367 83.9383 120.51C81.795 122.653 78.8881 123.857 75.8571 123.857H62.1428C59.1117 123.857 56.2048 122.653 54.0616 120.51C51.9183 118.367 50.7142 115.46 50.7142 112.429C50.7142 109.398 51.9183 106.491 54.0616 104.347C56.2048 102.204 59.1117 101 62.1428 101H75.8571Z" stroke="#F6AB4A" stroke-width="9.14286" stroke-linecap="round" stroke-linejoin="round"/>
</svg>
